 http://www.imdb.com/title/tt0139134/

Source: Cruel.Intentions.1999.720p.Bluray.DTS.x264-RuDE Thanks!

Subs: Arabic, Bulgarian, Danish, Dutch, English, Finnish, French, Hebrew, Indonesian, Norwegian, Polish, Portuguese, Romanian, Servian, Slovenian, Spanish, Swedish, Turkish and Vietnamese.

Sample and Screens included.

General
Complete name                            : Cruel Intensions-720p MP4 AAC x264 BRRip 1999-CC.mp4
Format                                   : MPEG-4
Format profile                           : Base Media
Codec ID                                 : isom
File size                                : 2.71 GiB
Duration                                 : 1h 37mn
Overall bit rate mode                    : Variable
Overall bit rate                         : 3 984 Kbps
Encoded date                             : UTC 2013-02-08 08:58:22

Video
ID                                       : 1
Format                                   : AVC
Format/Info                              : Advanced Video Codec
Format profile                           : High@L4.1
Format settings, CABAC                   : Yes
Format settings, ReFrames                : 5 frames
Codec ID                                 : avc1
Codec ID/Info                            : Advanced Video Coding
Duration                                 : 1h 37mn
Bit rate                                 : 3 641 Kbps
Maximum bit rate                         : 28.6 Mbps
Width                                    : 1 280 pixels
Height                                   : 692 pixels
Display aspect ratio                     : 1.85:1
Frame rate mode                          : Variable
Frame rate                               : 23.976 fps
Minimum frame rate                       : 19.048 fps
Maximum frame rate                       : 24.390 fps
Color space                              : YUV
Chroma subsampling                       : 4:2:0
Bit depth                                : 8 bits
Scan type                                : Progressive
Bits/(Pixel*Frame)                       : 0.171
Stream size                              : 2.45 GiB (90%)
Writing library                          : x264 core 112

Audio
ID                                       : 2
Format                                   : AAC
Format/Info                              : Advanced Audio Codec
Format profile                           : LC
Codec ID                                 : 40
Duration                                 : 1h 37mn
Bit rate mode                            : Variable
Bit rate                                 : 384 Kbps
Maximum bit rate                         : 652 Kbps
Channel(s)                               : 6 channels
Channel positions                        : Front: L C R, Side: L R, LFE
Sampling rate                            : 48.0 KHz
Compression mode                         : Lossy
Delay relative to video                  : 83ms
Stream size                              : 268 MiB (10%)

Enjoy...

Requested by Alorati

Coming soon: Mortal Kombat, Tropa de Elite, Serenity and more...